<svg width="20" height="12" viewBox="0 0 20 12" fill="none" xmlns="http://www.w3.org/2000/svg">
<path d="M19.2389 6.36607C19.6593 6.36607 20 6.02532 20 5.60499C20 5.18466 19.6593 4.84392 19.2389 4.84392V5.60499V6.36607ZM0.222756 5.06683C-0.0744611 5.36405 -0.0744611 5.84594 0.222756 6.14316L5.0662 10.9866C5.36342 11.2838 5.84531 11.2838 6.14252 10.9866C6.43974 10.6894 6.43974 10.2075 6.14252 9.91028L1.83724 5.60499L6.14252 1.29971C6.43974 1.00249 6.43974 0.520605 6.14252 0.223387C5.84531 -0.0738311 5.36342 -0.0738311 5.0662 0.223387L0.222756 5.06683ZM19.2389 5.60499V4.84392L0.760917 4.84392V5.60499V6.36607L19.2389 6.36607V5.60499Z" fill="#524B6B"/>
</svg>
