<svg width="20" height="20" viewBox="0 0 20 20" fill="none" xmlns="http://www.w3.org/2000/svg">
<path d="M5.1063 1.13206L7.64316 3.66892C8.13783 4.16394 8.13805 4.96657 7.64316 5.46146L6.22383 6.88078C5.93599 7.16863 5.89463 7.60984 6.0999 7.943C6.97072 9.35634 7.71698 10.4017 8.63116 11.3215C9.54611 12.2421 10.6015 13.0097 12.0587 13.9018C12.3913 14.1054 12.8314 14.0643 13.1188 13.7771L14.5388 12.3571C15.0338 11.8621 15.8364 11.8621 16.3314 12.3571L18.8675 14.8933C19.3625 15.3883 19.3625 16.1908 18.8675 16.6858L17.5287 18.0246C16.3578 19.1956 14.6708 19.5826 13.289 18.9062C8.12524 16.3783 3.62208 11.875 1.0941 6.71133C0.417589 5.32943 0.803949 3.64188 1.97496 2.47086L3.31376 1.13206C3.80876 0.637067 4.6113 0.637066 5.1063 1.13206Z" stroke="#FF9228" stroke-width="1.5"/>
</svg>
