<svg width="60" height="60" viewBox="0 0 60 60" fill="none" xmlns="http://www.w3.org/2000/svg">
<path d="M0 30C0 15.8579 0 8.78679 4.39339 4.39339C8.78679 0 15.8579 0 30 0C44.1422 0 51.2131 0 55.6066 4.39339C60 8.78679 60 15.8579 60 30C60 44.1422 60 51.2131 55.6066 55.6066C51.2131 60 44.1422 60 30 60C15.8579 60 8.78679 60 4.39339 55.6066C0 51.2131 0 44.1422 0 30Z" fill="white"/>
<path d="M34.9999 37.5C35.6902 37.5 36.2625 38.0651 36.1254 38.7418C35.883 39.9368 35.2942 41.0444 34.4192 41.9194C33.2472 43.0915 31.6575 43.75 29.9999 43.75C28.3422 43.75 26.7526 43.0915 25.5805 41.9194C24.7055 41.0444 24.1167 39.9368 23.8745 38.7418C23.7372 38.0651 24.3095 37.5 24.9999 37.5H34.9999Z" fill="#0D0140"/>
<path d="M37.6279 27.2206C36.9611 27.3992 36.5527 28.0969 36.8908 28.6987C37.2467 29.3322 37.7389 29.8851 38.3378 30.3142C39.2781 30.988 40.4228 31.315 41.5772 31.2392C42.7314 31.1636 43.8238 30.6901 44.6681 29.8994C45.5124 29.1086 46.0563 28.0495 46.2073 26.9026C46.3583 25.7557 46.1071 24.592 45.4962 23.6096C44.8853 22.6274 43.9527 21.8872 42.8573 21.5154C41.7619 21.1435 40.5716 21.163 39.4889 21.5705C38.7994 21.83 38.1809 22.2366 37.6732 22.7564C37.1908 23.2502 37.4047 24.0299 38.0026 24.375L38.6367 24.7411C39.6011 25.298 39.4109 26.7429 38.3352 27.0311L37.6279 27.2206Z" fill="#0D0140"/>
<path d="M22.3722 27.2206C23.039 27.3992 23.4474 28.0969 23.1093 28.6987C22.7534 29.3322 22.2612 29.8851 21.6624 30.3142C20.7222 30.988 19.5773 31.315 18.423 31.2392C17.2687 31.1636 16.1763 30.6901 15.332 29.8994C14.4878 29.1086 13.9438 28.0495 13.7928 26.9026C13.6418 25.7557 13.8931 24.592 14.504 23.6096C15.1148 22.6274 16.0474 21.8872 17.1428 21.5154C18.2382 21.1435 19.4287 21.163 20.5113 21.5705C21.2007 21.83 21.8193 22.2366 22.327 22.7564C22.8094 23.2502 22.5954 24.0299 21.9975 24.375L21.3634 24.7411C20.399 25.298 20.5893 26.7429 21.6649 27.0311L22.3722 27.2206Z" fill="#0D0140"/>
</svg>
