<svg width="20" height="20" viewBox="0 0 20 20" fill="none" xmlns="http://www.w3.org/2000/svg">
<path d="M17.8135 8.70159V15.0576C17.8135 17.2746 16.0162 19.0719 13.7992 19.0719H4.76699C2.54995 19.0719 0.752683 17.2746 0.752683 15.0576V6.02538C0.752683 3.80834 2.54995 2.01107 4.76699 2.01107H11.1787" stroke="#FF9228" stroke-width="1.5" stroke-linecap="round"/>
<path d="M18.7617 3.5835L11.0915 11.2537C10.7537 11.5914 10.3458 11.8504 9.89675 12.0132L7.40401 12.9176C7.20404 12.99 7.01018 12.796 7.08246 12.596L7.98614 10.1026C8.1489 9.65363 8.40872 9.24626 8.74636 8.90854L16.4165 1.23837C17.0642 0.590854 18.114 0.590752 18.7617 1.23837C19.4091 1.88601 19.4091 2.93587 18.7617 3.5835Z" stroke="#FF9228" stroke-width="1.5"/>
</svg>
